<svg width="16" height="16" viewBox="0 0 16 16" fill="none" xmlns="http://www.w3.org/2000/svg">
<path d="M3 1C1.892 1 1 1.892 1 3V13C1 14.108 1.892 15 3 15H13C14.108 15 15 14.108 15 13V3C15 1.892 14.108 1 13 1H3ZM3 2H13C13.554 2 14 2.446 14 3V12C14 12.554 13.554 13 13 13H3C2.446 13 2 12.554 2 12V3C2 2.446 2.446 2 3 2ZM8 10.4727C7.86378 10.4727 7.72756 10.4184 7.625 10.3125L5.125 7.3125C5.06913 7.24127 5.03776 7.15495 5.03516 7.06445C5.02216 6.79745 5.223 6.508 5.5 6.5H7V3C7 2.739 7.238 2.5 7.5 2.5H8.5C8.53126 2.497 8.56249 2.497 8.59375 2.5C8.82905 2.55171 8.9977 2.7591 9 3V6.5H10.5C10.869 6.512 11.105 7.0245 10.875 7.3125L8.375 10.3125C8.27244 10.4184 8.13622 10.4727 8 10.4727Z" fill="#666666"/>
<path d="M3 11.5C3 11.2239 3.22386 11 3.5 11H12.5C12.7761 11 13 11.2239 13 11.5C13 11.7761 12.7761 12 12.5 12H3.5C3.22386 12 3 11.7761 3 11.5Z" fill="#666666"/>
</svg>
